<svg xmlns="http://www.w3.org/2000/svg" width="1182" height="1182" viewBox="0 0 1182 1182" version="1.1"><path d="M 255.416 246.749 L 226.332 247.030 225.666 457.181 L 225 667.332 225 801.170 L 225 935.008 344.750 934.754 L 464.500 934.500 464.161 857.500 L 463.822 780.500 429.073 745.664 L 394.325 710.828 393.622 788.121 L 392.919 865.414 392.580 865.754 L 392.240 866.093 350.620 865.388 L 309 864.683 309 597.842 L 309 331 337.268 331 L 365.535 331 478.130 442.947 L 590.724 554.893 703.610 442.578 L 816.496 330.264 886.248 330.779 L 956 331.293 956 289.310 L 956 247.326 912.336 246.663 L 868.672 246 821.097 246 L 773.523 246 682.013 337.494 L 590.503 428.988 498.989 337.494 L 407.474 246 345.987 246.234 L 284.500 246.469 255.416 246.749 M 718 541.500 L 591.502 668.001 590.889 667.750 L 590.275 667.500 517.432 600 L 444.589 532.500 423.045 512.578 L 401.500 492.656 397.750 489.125 L 394 485.594 394.079 541.547 L 394.158 597.500 422.548 624 L 450.938 650.500 457.219 656.365 L 463.500 662.229 470.504 668.865 L 477.508 675.500 507.004 703.080 L 536.500 730.659 563.398 755.804 L 590.295 780.948 593.898 777.793 L 597.500 774.638 625.500 747.997 L 653.500 721.355 689 687.520 L 724.500 653.685 798.250 583.321 L 872 512.958 872 688.979 L 872 865 830.163 865 L 788.325 865 787.664 825.250 L 787.003 785.500 787.001 748.005 L 787 710.511 751.994 745.505 L 716.988 780.500 717.244 857.500 L 717.500 934.500 836.750 934.754 L 956 935.008 956 675.004 L 956 415 900.249 415 L 844.497 415 718 541.500" stroke="none" fill="#fbfbfb" fill-rule="evenodd"/><path d="M 540 4.666 L 536.500 5.011 522 6.556 L 507.500 8.101 492.500 10.601 L 477.500 13.101 463.659 16.121 L 449.818 19.141 435.159 23.114 L 420.500 27.086 402.500 33.156 L 384.500 39.227 369.500 45.170 L 354.500 51.113 329.271 63.606 L 304.041 76.100 288.271 85.639 L 272.500 95.179 262 102.267 L 251.500 109.354 239.500 118.319 L 227.500 127.283 218.500 134.515 L 209.500 141.747 196 153.988 L 182.500 166.229 172.500 176.425 L 162.500 186.621 153.483 196.561 L 144.467 206.500 139.473 212.500 L 134.478 218.500 130.914 223 L 127.349 227.500 120.883 236 L 114.418 244.500 109.746 251.127 L 105.074 257.755 98.206 268.127 L 91.337 278.500 81.500 295.466 L 71.663 312.433 63.919 327.966 L 56.174 343.500 49.684 359 L 43.194 374.500 38.732 386.500 L 34.271 398.500 31.229 408 L 28.187 417.500 24.653 430 L 21.119 442.500 19.124 451 L 17.129 459.500 15.129 468.500 L 13.128 477.500 11.081 490 L 9.034 502.500 7.584 514 L 6.135 525.500 4.961 539 L 3.788 552.500 4.249 597 L 4.710 641.500 6.385 654.500 L 8.059 667.500 9.595 678 L 11.132 688.500 14.049 703 L 16.965 717.500 20.970 733.274 L 24.975 749.047 26.588 754.274 L 28.202 759.500 33.526 775.500 L 38.851 791.500 45.480 808 L 52.108 824.500 62.505 845.758 L 72.901 867.017 82.142 882.758 L 91.383 898.500 97.979 908.523 L 104.575 918.546 109.507 925.523 L 114.439 932.500 120.452 940.500 L 126.466 948.500 130.899 954 L 135.332 959.500 139.416 964.401 L 143.500 969.303 152.370 979.209 L 161.240 989.116 172.870 1000.853 L 184.500 1012.589 195 1022.136 L 205.500 1031.682 215.500 1039.997 L 225.500 1048.312 238.500 1057.966 L 251.500 1067.620 262 1074.720 L 272.500 1081.821 288.500 1091.518 L 304.500 1101.216 329.500 1113.541 L 354.500 1125.866 369.500 1131.820 L 384.500 1137.773 402.500 1143.835 L 420.500 1149.897 433.500 1153.430 L 446.500 1156.964 459.500 1159.944 L 472.500 1162.924 487 1165.484 L 501.500 1168.044 518 1170.177 L 534.500 1172.310 581.774 1172.739 L 629.049 1173.169 645.274 1171.521 L 661.500 1169.873 675 1167.912 L 688.500 1165.950 703.500 1162.942 L 718.500 1159.934 735.500 1155.531 L 752.500 1151.128 765.500 1146.959 L 778.500 1142.789 791.960 1137.818 L 805.419 1132.847 820.460 1126.341 L 835.500 1119.836 850 1112.575 L 864.500 1105.314 878.500 1097.325 L 892.500 1089.335 902 1083.258 L 911.500 1077.181 919.255 1071.840 L 927.010 1066.500 934.255 1061.216 L 941.500 1055.932 946.838 1051.716 L 952.176 1047.500 959.426 1041.500 L 966.675 1035.500 975.088 1028.310 L 983.500 1021.121 996.672 1008.310 L 1009.844 995.500 1022.055 982 L 1034.267 968.500 1039.883 961.626 L 1045.500 954.753 1048 951.518 L 1050.500 948.282 1059.500 936.161 L 1068.500 924.040 1073.209 917.270 L 1077.918 910.500 1084.896 899.333 L 1091.875 888.167 1099.317 874.833 L 1106.760 861.500 1112.433 850.160 L 1118.107 838.821 1124.166 825.160 L 1130.226 811.500 1133.705 802.500 L 1137.184 793.500 1142.015 779.877 L 1146.846 766.254 1151.383 750.377 L 1155.920 734.500 1158.026 725.500 L 1160.132 716.500 1162.980 702.500 L 1165.828 688.500 1167.864 674.500 L 1169.901 660.500 1171.536 643.595 L 1173.171 626.690 1172.733 581.095 L 1172.295 535.500 1170.639 522.500 L 1168.983 509.500 1167.396 499 L 1165.810 488.500 1162.351 471.500 L 1158.891 454.500 1155.892 443 L 1152.893 431.500 1150.396 423 L 1147.899 414.500 1143.325 401 L 1138.751 387.500 1133.472 374 L 1128.192 360.500 1122.980 349 L 1117.768 337.500 1112.762 327.500 L 1107.757 317.500 1101.198 305.500 L 1094.639 293.500 1087.213 281.500 L 1079.787 269.500 1074.715 262 L 1069.643 254.500 1063.574 246 L 1057.505 237.500 1053.157 232 L 1048.809 226.500 1043.654 220.066 L 1038.500 213.631 1026.563 200.066 L 1014.626 186.500 999.563 171.635 L 984.500 156.771 971.500 145.635 L 958.500 134.500 951.500 128.996 L 944.500 123.492 937 117.922 L 929.500 112.351 922.500 107.375 L 915.500 102.399 906.500 96.518 L 897.500 90.638 879.500 80.295 L 861.500 69.952 847.500 63.063 L 833.500 56.175 819 50.005 L 804.500 43.835 791.500 39.023 L 778.500 34.211 765.500 30.041 L 752.500 25.872 735.500 21.469 L 718.500 17.066 703.500 14.056 L 688.500 11.046 674.500 9.036 L 660.500 7.025 645.778 5.513 L 631.057 4 587.278 4.160 L 543.500 4.320 540 4.666 M 255.416 246.749 L 226.332 247.030 225.666 457.181 L 225 667.332 225 801.170 L 225 935.008 344.750 934.754 L 464.500 934.500 464.161 857.500 L 463.822 780.500 429.073 745.664 L 394.325 710.828 393.622 788.121 L 392.919 865.414 392.580 865.754 L 392.240 866.093 350.620 865.388 L 309 864.683 309 597.842 L 309 331 337.268 331 L 365.535 331 478.130 442.947 L 590.724 554.893 703.610 442.578 L 816.496 330.264 886.248 330.779 L 956 331.293 956 289.310 L 956 247.326 912.336 246.663 L 868.672 246 821.097 246 L 773.523 246 682.013 337.494 L 590.503 428.988 498.989 337.494 L 407.474 246 345.987 246.234 L 284.500 246.469 255.416 246.749 M 718 541.500 L 591.502 668.001 590.889 667.750 L 590.275 667.500 517.432 600 L 444.589 532.500 423.045 512.578 L 401.500 492.656 397.750 489.125 L 394 485.594 394.079 541.547 L 394.158 597.500 422.548 624 L 450.938 650.500 457.219 656.365 L 463.500 662.229 470.504 668.865 L 477.508 675.500 507.004 703.080 L 536.500 730.659 563.398 755.804 L 590.295 780.948 593.898 777.793 L 597.500 774.638 625.500 747.997 L 653.500 721.355 689 687.520 L 724.500 653.685 798.250 583.321 L 872 512.958 872 688.979 L 872 865 830.163 865 L 788.325 865 787.664 825.250 L 787.003 785.500 787.001 748.005 L 787 710.511 751.994 745.505 L 716.988 780.500 717.244 857.500 L 717.500 934.500 836.750 934.754 L 956 935.008 956 675.004 L 956 415 900.249 415 L 844.497 415 718 541.500" stroke="none" fill="#0a23c2" fill-rule="evenodd"/></svg>