<svg width="24" height="25" viewBox="0 0 24 25" fill="none" xmlns="http://www.w3.org/2000/svg">
<g id="icon/ChatDots">
<path id="Vector" d="M7.25625 19.4281L4.22812 21.9594C4.11886 22.0498 3.9862 22.1074 3.84553 22.1254C3.70486 22.1435 3.56195 22.1213 3.43338 22.0615C3.30481 22.0016 3.19585 21.9065 3.11914 21.7872C3.04244 21.6679 3.00112 21.5293 3 21.3875V6.5C3 6.30109 3.07902 6.11032 3.21967 5.96967C3.36032 5.82902 3.55109 5.75 3.75 5.75H20.25C20.4489 5.75 20.6397 5.82902 20.7803 5.96967C20.921 6.11032 21 6.30109 21 6.5V18.5C21 18.6989 20.921 18.8897 20.7803 19.0303C20.6397 19.171 20.4489 19.25 20.25 19.25H7.73438C7.55878 19.25 7.38907 19.3133 7.25625 19.4281V19.4281Z" stroke="#495057" stroke-linecap="round" stroke-linejoin="round"/>
<path id="Vector_2" d="M12.625 12.5C12.625 12.8452 12.3452 13.125 12 13.125C11.6548 13.125 11.375 12.8452 11.375 12.5C11.375 12.1548 11.6548 11.875 12 11.875C12.3452 11.875 12.625 12.1548 12.625 12.5Z" fill="#495057" stroke="#495057"/>
<path id="Vector_3" d="M8.125 12.5C8.125 12.8452 7.84518 13.125 7.5 13.125C7.15482 13.125 6.875 12.8452 6.875 12.5C6.875 12.1548 7.15482 11.875 7.5 11.875C7.84518 11.875 8.125 12.1548 8.125 12.5Z" fill="#495057" stroke="#495057"/>
<path id="Vector_4" d="M17.125 12.5C17.125 12.8452 16.8452 13.125 16.5 13.125C16.1548 13.125 15.875 12.8452 15.875 12.5C15.875 12.1548 16.1548 11.875 16.5 11.875C16.8452 11.875 17.125 12.1548 17.125 12.5Z" fill="#495057" stroke="#495057"/>
</g>
</svg>
