<svg width="24" height="25" viewBox="0 0 24 25" fill="none" xmlns="http://www.w3.org/2000/svg">
<g id="icon/Recycle">
<path id="Vector" d="M14.25 22.25L12 20L14.25 17.75" stroke="#495057" stroke-linecap="round" stroke-linejoin="round"/>
<path id="Vector_2" d="M18.2437 7.55005L17.4187 10.625L14.353 9.80005" stroke="#495057" stroke-linecap="round" stroke-linejoin="round"/>
<path id="Vector_3" d="M7.40635 13.7L6.58135 10.625L3.50635 11.45" stroke="#495057" stroke-linecap="round" stroke-linejoin="round"/>
<path id="Vector_4" d="M12 19.9999H20.25C20.5129 19.999 20.7709 19.929 20.9981 19.797C21.2254 19.6649 21.414 19.4755 21.5451 19.2476C21.6761 19.0197 21.745 18.7614 21.7447 18.4986C21.7445 18.2357 21.6752 17.9775 21.5438 17.7499L19.3031 13.8687" stroke="#495057" stroke-linecap="round" stroke-linejoin="round"/>
<path id="Vector_5" d="M6.58134 10.625L2.45634 17.75C2.32491 17.9776 2.2556 18.2358 2.25537 18.4987C2.25514 18.7615 2.32398 19.0198 2.45501 19.2477C2.58604 19.4756 2.77465 19.665 3.00194 19.7971C3.22923 19.9291 3.48723 19.9991 3.75009 20H8.25009" stroke="#495057" stroke-linecap="round" stroke-linejoin="round"/>
<path id="Vector_6" d="M17.4186 10.625L13.2936 3.49999C13.1631 3.27206 12.9748 3.08263 12.7476 2.95088C12.5204 2.81914 12.2624 2.74976 11.9998 2.74976C11.7372 2.74976 11.4792 2.81914 11.252 2.95088C11.0248 3.08263 10.8365 3.27206 10.7061 3.49999L8.45605 7.38124" stroke="#495057" stroke-linecap="round" stroke-linejoin="round"/>
</g>
</svg>
