<svg width="144" height="46" viewBox="0 0 144 46" fill="none" xmlns="http://www.w3.org/2000/svg">
<g clip-path="url(#clip0_2228_7792)">
<path d="M23.5 32C21.9667 32 20.6667 31.4667 19.6 30.4C18.5333 29.3333 18 28.0333 18 26.5V16C18 14.9 18.3917 13.9583 19.175 13.175C19.9583 12.3917 20.9 12 22 12C23.1 12 24.0417 12.3917 24.825 13.175C25.6083 13.9583 26 14.9 26 16V25.5C26 26.2 25.7583 26.7917 25.275 27.275C24.7917 27.7583 24.2 28 23.5 28C22.8 28 22.2083 27.7583 21.725 27.275C21.2417 26.7917 21 26.2 21 25.5V16H22.5V25.5C22.5 25.7833 22.5958 26.0208 22.7875 26.2125C22.9792 26.4042 23.2167 26.5 23.5 26.5C23.7833 26.5 24.0208 26.4042 24.2125 26.2125C24.4042 26.0208 24.5 25.7833 24.5 25.5V16C24.5 15.3 24.2583 14.7083 23.775 14.225C23.2917 13.7417 22.7 13.5 22 13.5C21.3 13.5 20.7083 13.7417 20.225 14.225C19.7417 14.7083 19.5 15.3 19.5 16V26.5C19.5 27.6 19.8917 28.5417 20.675 29.325C21.4583 30.1083 22.4 30.5 23.5 30.5C24.6 30.5 25.5417 30.1083 26.325 29.325C27.1083 28.5417 27.5 27.6 27.5 26.5V16H29V26.5C29 28.0333 28.4667 29.3333 27.4 30.4C26.3333 31.4667 25.0333 32 23.5 32Z" fill="#49454F"/>
</g>
<g clip-path="url(#clip1_2228_7792)">
<path d="M69 26.5C68.3 26.5 67.7083 26.2583 67.225 25.775C66.7417 25.2917 66.5 24.7 66.5 24C66.5 23.3 66.7417 22.7083 67.225 22.225C67.7083 21.7417 68.3 21.5 69 21.5C69.7 21.5 70.2917 21.7417 70.775 22.225C71.2583 22.7083 71.5 23.3 71.5 24C71.5 24.7 71.2583 25.2917 70.775 25.775C70.2917 26.2583 69.7 26.5 69 26.5ZM65 32C64.45 32 63.9792 31.8042 63.5875 31.4125C63.1958 31.0208 63 30.55 63 30V16C63 15.45 63.1958 14.9792 63.5875 14.5875C63.9792 14.1958 64.45 14 65 14H66V12H68V14H76V12H78V14H79C79.55 14 80.0208 14.1958 80.4125 14.5875C80.8042 14.9792 81 15.45 81 16V30C81 30.55 80.8042 31.0208 80.4125 31.4125C80.0208 31.8042 79.55 32 79 32H65ZM65 30H79V20H65V30Z" fill="#49454F"/>
</g>
<g clip-path="url(#clip2_2228_7792)">
<path d="M120 30C119.45 30 118.979 29.8042 118.588 29.4125C118.196 29.0208 118 28.55 118 28C118 27.45 118.196 26.9792 118.588 26.5875C118.979 26.1958 119.45 26 120 26C120.55 26 121.021 26.1958 121.413 26.5875C121.804 26.9792 122 27.45 122 28C122 28.55 121.804 29.0208 121.413 29.4125C121.021 29.8042 120.55 30 120 30ZM120 24C119.45 24 118.979 23.8042 118.588 23.4125C118.196 23.0208 118 22.55 118 22C118 21.45 118.196 20.9792 118.588 20.5875C118.979 20.1958 119.45 20 120 20C120.55 20 121.021 20.1958 121.413 20.5875C121.804 20.9792 122 21.45 122 22C122 22.55 121.804 23.0208 121.413 23.4125C121.021 23.8042 120.55 24 120 24ZM120 18C119.45 18 118.979 17.8042 118.588 17.4125C118.196 17.0208 118 16.55 118 16C118 15.45 118.196 14.9792 118.588 14.5875C118.979 14.1958 119.45 14 120 14C120.55 14 121.021 14.1958 121.413 14.5875C121.804 14.9792 122 15.45 122 16C122 16.55 121.804 17.0208 121.413 17.4125C121.021 17.8042 120.55 18 120 18Z" fill="#49454F"/>
</g>
<defs>
<clipPath id="clip0_2228_7792">
<rect x="4" y="2" width="40" height="40" rx="20" fill="white"/>
</clipPath>
<clipPath id="clip1_2228_7792">
<rect x="52" y="2" width="40" height="40" rx="20" fill="white"/>
</clipPath>
<clipPath id="clip2_2228_7792">
<rect x="100" y="2" width="40" height="40" rx="20" fill="white"/>
</clipPath>
</defs>
</svg>
